<svg xmlns="http://www.w3.org/2000/svg" viewBox="0 0 360.92 312.63"><defs><style>.cls-1{fill:#febd12;}.cls-2{fill:#fff;}.cls-3{fill:#f15722;}</style></defs><g id="Layer_2" data-name="Layer 2"><g id="Layer_1-2" data-name="Layer 1"><path class="cls-1" d="M115,22.55H245.93a9.85,9.85,0,0,1,9.85,9.85V296.05a5.66,5.66,0,0,1-5.66,5.66H110.81a5.66,5.66,0,0,1-5.66-5.66V32.41A9.85,9.85,0,0,1,115,22.55Z"/><polygon class="cls-1" points="147.26 72.96 105.13 97.22 105.19 48.61 105.24 0 147.31 24.35 189.38 48.7 147.26 72.96"/><polygon class="cls-1" points="213.66 72.96 255.78 97.22 255.73 48.61 255.68 0 213.6 24.35 171.53 48.7 213.66 72.96"/><ellipse class="cls-2" cx="165.25" cy="90.79" rx="11.92" ry="16.95"/><ellipse class="cls-2" cx="219.3" cy="90.79" rx="11.92" ry="16.95"/><path class="cls-3" d="M6.65,256.54a6.57,6.57,0,0,1-3.27-.87A6.64,6.64,0,0,1,.87,246.6L65.46,132.72A6.66,6.66,0,1,1,77,139.29L12.45,253.17A6.66,6.66,0,0,1,6.65,256.54Z"/><path class="cls-3" d="M354.26,256.54a6.66,6.66,0,0,1-5.8-3.37L283.87,139.29a6.66,6.66,0,0,1,11.59-6.57L360.05,246.6a6.66,6.66,0,0,1-5.79,9.94Z"/><rect class="cls-3" x="71.26" y="136" width="218.42" height="169.97"/><path class="cls-3" d="M289.67,312.63H71.25A6.66,6.66,0,0,1,64.59,306V136a6.66,6.66,0,0,1,6.66-6.66H289.67a6.65,6.65,0,0,1,6.65,6.66V306A6.65,6.65,0,0,1,289.67,312.63ZM77.91,299.32H283V142.66H77.91Z"/><path class="cls-1" d="M306.36,109.47l-36-3a1.46,1.46,0,0,1,0-2.91l36-3.16a4.54,4.54,0,0,1,4.94,4.51h0A4.54,4.54,0,0,1,306.36,109.47Z"/><path class="cls-1" d="M277.55,61.89,264.86,95.72A1.45,1.45,0,0,0,267.48,97l18.24-31.18a4.53,4.53,0,0,0-2-6.39h0A4.55,4.55,0,0,0,277.55,61.89Z"/><path class="cls-1" d="M303.53,83.85l-32,16.66a1.46,1.46,0,0,1-1.56-2.45L298.69,76.2a4.54,4.54,0,0,1,6.58,1.19h0A4.54,4.54,0,0,1,303.53,83.85Z"/></g></g></svg>