<svg xmlns="http://www.w3.org/2000/svg" viewBox="0 0 491.74 103.97"><defs><style>.cls-1{fill:#febd12;}.cls-2{fill:#fff;}.cls-3{fill:#f15722;}</style></defs><g id="Layer_2" data-name="Layer 2"><g id="Layer_1-2" data-name="Layer 1"><path class="cls-1" d="M44.82,7.5H75.21a9.85,9.85,0,0,1,9.85,9.85V94.68a5.66,5.66,0,0,1-5.66,5.66H40.63A5.66,5.66,0,0,1,35,94.68V17.35A9.85,9.85,0,0,1,44.82,7.5Z"/><polygon class="cls-1" points="48.97 24.27 34.96 32.33 34.98 16.17 35 0 48.99 8.1 62.98 16.2 48.97 24.27"/><polygon class="cls-1" points="71.05 24.27 85.06 32.33 85.05 16.17 85.03 0 71.04 8.1 57.05 16.2 71.05 24.27"/><ellipse class="cls-2" cx="54.96" cy="30.19" rx="3.97" ry="5.64"/><ellipse class="cls-2" cx="72.93" cy="30.19" rx="3.97" ry="5.64"/><path class="cls-3" d="M2.21,85.32A2.28,2.28,0,0,1,1.12,85a2.22,2.22,0,0,1-.83-3L21.77,44.14a2.21,2.21,0,1,1,3.85,2.18L4.14,84.19A2.23,2.23,0,0,1,2.21,85.32Z"/><path class="cls-3" d="M117.81,85.32a2.2,2.2,0,0,1-1.92-1.13L94.41,46.32a2.21,2.21,0,1,1,3.85-2.18L119.74,82a2.22,2.22,0,0,1-.84,3A2.25,2.25,0,0,1,117.81,85.32Z"/><rect class="cls-3" x="23.69" y="45.23" width="72.64" height="56.53"/><path class="cls-3" d="M96.33,104H23.69a2.21,2.21,0,0,1-2.21-2.21V45.23A2.21,2.21,0,0,1,23.69,43H96.33a2.21,2.21,0,0,1,2.22,2.21v56.53A2.21,2.21,0,0,1,96.33,104ZM25.91,99.54H94.12V47.44H25.91Z"/><path class="cls-1" d="M101.88,36.41l-12-1a.48.48,0,0,1,0-1l12-1.06a1.52,1.52,0,0,1,1.65,1.5h0A1.52,1.52,0,0,1,101.88,36.41Z"/><path class="cls-1" d="M92.3,20.58q-2.1,5.63-4.22,11.25a.48.48,0,0,0,.87.42L95,21.88a1.52,1.52,0,0,0-.65-2.13h0A1.51,1.51,0,0,0,92.3,20.58Z"/><path class="cls-1" d="M100.94,27.89,90.28,33.43a.48.48,0,0,1-.51-.82l9.56-7.27a1.51,1.51,0,0,1,2.19.4h0A1.51,1.51,0,0,1,100.94,27.89Z"/><path class="cls-1" d="M127.15,48.07h14.9L158.53,76.3l16.55-28.23h14.75v55.19H176.19V69.36l-17.74,31-17.58-30.9v33.82H127.15Z"/><path class="cls-1" d="M196.85,84.89c0-10.8,7.33-19.16,20.18-19.16,11,0,18.37,6.86,18.37,18.76l-.15,3h-25c.71,4.26,3.39,6.39,6.86,6.39,3.24,0,5.76-1.26,7.18-4.26l10.4,4.26c-2.68,6.23-9.3,10.09-17,10.09C202.92,104,196.85,95.61,196.85,84.89Zm25.39-5.36c-.71-2.76-2.37-4.1-5.6-4.1a5.58,5.58,0,0,0-5.83,4.1Z"/><path class="cls-1" d="M240.14,84.89c0-10.8,9.14-19.16,20.81-19.16s20.82,8.36,20.82,19.16S272.7,104,261,104,240.14,95.61,240.14,84.89ZM261,92.46a7.57,7.57,0,1,0-7.57-7.57A7.52,7.52,0,0,0,261,92.46Z"/><path class="cls-1" d="M283.58,66.44h15.06l5.44,22.86,7.18-22.86h10.09L328.6,89.3,334,66.44h14.9l-12.61,36.82H322.45L316.3,84.65l-6.15,18.61H296.28Z"/><path class="cls-3" d="M354.55,48.07H378c9.46,0,16.88,4.73,16.88,14.74a12.59,12.59,0,0,1-6,11,13.1,13.1,0,0,1,8.68,12.62c0,11.59-7.34,16.79-16.72,16.79H354.55Zm21.37,21.6c4.17,0,5.51-2.36,5.51-4.81S380.09,60,375.92,60h-7.65v9.69Zm2.2,21.68c4.65,0,5.76-2.68,5.76-5.28s-1.11-5.36-5.76-5.36h-9.85V91.35Z"/><path class="cls-3" d="M402.57,84.89c0-10.8,9.14-19.16,20.81-19.16s20.82,8.36,20.82,19.16S435.13,104,423.38,104,402.57,95.61,402.57,84.89Zm20.81,7.57a7.57,7.57,0,1,0-7.57-7.57A7.52,7.52,0,0,0,423.38,92.46Z"/><path class="cls-3" d="M460.28,84.89,444.67,66.44h15.77l7.73,9.86,7.72-9.86h15.85L476.13,85l15.61,18.29H475.82l-7.57-9.7-7.65,9.7H444.67Z"/></g></g></svg>