<svg xmlns="http://www.w3.org/2000/svg" viewBox="0 0 228.25 48.26"><defs><style>.cls-1{fill:#febd12;}.cls-2{fill:#fff;}.cls-3{fill:#f15722;}</style></defs><g id="Layer_2" data-name="Layer 2"><g id="Layer_1-2" data-name="Layer 1"><path class="cls-1" d="M26.09,3.48h3.55a9.85,9.85,0,0,1,9.85,9.85V40.92a5.66,5.66,0,0,1-5.66,5.66H21.89a5.66,5.66,0,0,1-5.66-5.66V13.33a9.85,9.85,0,0,1,9.85-9.85Z"/><polygon class="cls-1" points="22.73 11.26 16.23 15.01 16.24 7.5 16.25 0 22.74 3.76 29.23 7.52 22.73 11.26"/><polygon class="cls-1" points="32.98 11.26 39.48 15.01 39.48 7.5 39.47 0 32.97 3.76 26.48 7.52 32.98 11.26"/><ellipse class="cls-2" cx="25.51" cy="14.02" rx="1.84" ry="2.62"/><ellipse class="cls-2" cx="33.85" cy="14.02" rx="1.84" ry="2.62"/><path class="cls-3" d="M1,39.6a1,1,0,0,1-.51-.13,1,1,0,0,1-.39-1.4l10-17.58a1,1,0,1,1,1.79,1l-10,17.58A1,1,0,0,1,1,39.6Z"/><path class="cls-3" d="M54.69,39.6a1,1,0,0,1-.9-.52l-10-17.58a1,1,0,1,1,1.79-1l10,17.58a1,1,0,0,1-.39,1.4A1,1,0,0,1,54.69,39.6Z"/><rect class="cls-3" x="11" y="20.99" width="33.72" height="26.24"/><path class="cls-3" d="M44.72,48.26H11a1,1,0,0,1-1-1V21a1,1,0,0,1,1-1H44.72a1,1,0,0,1,1,1V47.23A1,1,0,0,1,44.72,48.26ZM12,46.2H43.69V22H12Z"/><path class="cls-1" d="M47.29,16.9l-5.56-.46a.23.23,0,0,1,0-.45l5.56-.49a.7.7,0,0,1,.76.7h0A.7.7,0,0,1,47.29,16.9Z"/><path class="cls-1" d="M42.84,9.55l-2,5.23a.22.22,0,0,0,.4.19l2.82-4.82a.7.7,0,0,0-.31-1h0A.7.7,0,0,0,42.84,9.55Z"/><path class="cls-1" d="M46.86,12.94l-5,2.58a.23.23,0,0,1-.24-.38l4.44-3.38a.69.69,0,0,1,1,.19h0A.7.7,0,0,1,46.86,12.94Z"/><path class="cls-1" d="M59,22.31h6.92l7.64,13.1,7.69-13.1h6.84V47.93H81.78V32.19L73.55,46.58,65.39,32.23v15.7H59Z"/><path class="cls-1" d="M91.37,39.4c0-5,3.41-8.89,9.37-8.89,5.13,0,8.53,3.19,8.53,8.71l-.07,1.39H97.6a3.14,3.14,0,0,0,3.18,3,3.39,3.39,0,0,0,3.33-2l4.83,2c-1.24,2.89-4.32,4.68-7.9,4.68C94.19,48.26,91.37,44.38,91.37,39.4Zm11.79-2.48a2.33,2.33,0,0,0-2.6-1.91,2.59,2.59,0,0,0-2.71,1.91Z"/><path class="cls-1" d="M111.47,39.4c0-5,4.24-8.89,9.66-8.89s9.66,3.88,9.66,8.89-4.21,8.86-9.66,8.86S111.47,44.38,111.47,39.4Zm9.66,3.52a3.52,3.52,0,1,0-3.52-3.52A3.49,3.49,0,0,0,121.13,42.92Z"/><path class="cls-1" d="M131.63,30.84h7l2.53,10.61,3.33-10.61h4.68l3.37,10.61,2.52-10.61H162l-5.85,17.09h-6.44l-2.86-8.64L144,47.93h-6.44Z"/><path class="cls-3" d="M164.57,22.31h10.91c4.39,0,7.83,2.2,7.83,6.85a5.83,5.83,0,0,1-2.78,5.12,6.07,6.07,0,0,1,4,5.86c0,5.37-3.4,7.79-7.75,7.79H164.57Zm9.92,10c1.94,0,2.56-1.1,2.56-2.23s-.62-2.27-2.56-2.27h-3.55v4.5Zm1,10.06c2.15,0,2.67-1.24,2.67-2.45s-.52-2.49-2.67-2.49h-4.58V42.4Z"/><path class="cls-3" d="M186.86,39.4c0-5,4.25-8.89,9.66-8.89s9.67,3.88,9.67,8.89-4.21,8.86-9.67,8.86S186.86,44.38,186.86,39.4Zm9.66,3.52A3.52,3.52,0,1,0,193,39.4,3.5,3.5,0,0,0,196.52,42.92Z"/><path class="cls-3" d="M213.65,39.4l-7.24-8.56h7.32l3.58,4.57,3.59-4.57h7.35L221,39.44l7.24,8.49h-7.39l-3.51-4.5-3.55,4.5h-7.39Z"/></g></g></svg>